<?xml version="1.0" standalone="no"?>
<!DOCTYPE svg PUBLIC "-//W3C//DTD SVG 20010904//EN"
 "http://www.w3.org/TR/2001/REC-SVG-20010904/DTD/svg10.dtd">
<svg version="1.0" xmlns="http://www.w3.org/2000/svg"
 width="1980.000000pt" height="1980.000000pt" viewBox="0 0 1980.000000 1980.000000"
 preserveAspectRatio="xMidYMid meet">
<metadata>
Created by potrace 1.11, written by Peter Selinger 2001-2013
</metadata>
<g transform="translate(0.000000,1980.000000) scale(0.100000,-0.100000)"
fill="#000000" stroke="none">
<path d="M0 9900 l0 -9900 9900 0 9900 0 0 9900 0 9900 -9900 0 -9900 0 0
-9900z m17880 7979 c3 -4 5 -3597 5 -7986 l0 -7978 -7975 -1 c-4386 0 -7980 1
-7985 3 -7 2 -10 2671 -9 7986 1 4390 2 7982 3 7982 1309 4 15958 -2 15961 -6z"/>
<path d="M3144 9902 l1 -5447 2585 0 2585 0 0 1080 0 1080 -930 2 c-511 2
-1111 3 -1332 3 l-403 0 0 1228 0 1227 1187 0 1188 0 0 1033 c0 567 -2 1033
-5 1033 -3 1 -536 2 -1185 3 l-1180 1 -3 1018 c-2 964 -1 1017 15 1018 10 0
569 1 1243 2 l1225 2 0 1080 0 1080 -2496 2 -2495 3 0 -5448z"/>
<path d="M9807 15342 c-2 -4 -4 -2455 -3 -5447 l1 -5440 1090 0 1090 0 -1
1265 c-1 1309 -8 2037 -29 2705 -3 116 -8 273 -10 350 -3 77 -7 205 -10 285
-3 80 -7 210 -10 290 -3 79 -7 190 -10 245 -2 55 -7 165 -10 245 -3 80 -8 181
-10 225 -2 44 -7 143 -10 220 -3 77 -8 172 -10 210 -2 39 -7 126 -10 195 -3
69 -7 163 -10 210 -16 289 -16 292 2 288 15 -3 25 -24 37 -83 3 -11 18 -69 35
-130 16 -60 37 -137 45 -170 88 -324 363 -1162 573 -1745 56 -155 250 -674
268 -715 7 -16 102 -253 210 -525 109 -272 221 -553 250 -625 30 -71 95 -233
145 -360 50 -126 98 -243 105 -260 7 -16 99 -246 205 -510 105 -264 198 -493
205 -510 30 -70 106 -261 110 -275 3 -15 23 -64 50 -125 7 -16 45 -111 85
-210 39 -99 75 -189 79 -200 5 -11 12 -27 15 -35 3 -8 27 -69 53 -135 l49
-120 1140 -1 1140 -2 0 5447 -1 5446 -1090 0 -1090 0 1 -1160 c1 -1017 5
-1476 19 -1890 2 -60 6 -191 10 -290 3 -99 8 -220 10 -270 3 -49 7 -157 10
-240 4 -82 8 -175 10 -205 2 -30 7 -116 10 -190 3 -74 8 -166 10 -205 3 -38 7
-115 10 -170 3 -55 7 -134 10 -175 3 -41 7 -109 10 -150 3 -41 7 -115 10 -165
3 -49 7 -119 10 -155 3 -36 7 -105 10 -155 3 -49 7 -115 10 -145 3 -30 7 -93
10 -140 5 -81 10 -153 20 -285 2 -33 7 -103 11 -155 3 -52 8 -111 9 -130 2
-19 7 -82 10 -140 4 -58 8 -116 11 -130 2 -14 6 -74 9 -135 4 -60 8 -117 11
-126 5 -17 -22 -34 -30 -20 -3 4 -34 93 -69 197 -114 336 -128 379 -137 399
-4 11 -45 124 -90 250 -225 633 -457 1250 -817 2170 -19 50 -64 164 -99 255
-36 91 -69 174 -74 185 -4 11 -36 92 -70 180 -33 88 -65 169 -70 180 -5 11
-50 126 -100 255 -50 129 -122 314 -159 410 -38 96 -95 240 -126 320 -31 80
-109 278 -173 440 -63 162 -122 313 -129 335 -8 22 -21 56 -30 75 -22 52 -27
64 -82 205 -27 72 -70 182 -94 245 -25 63 -62 158 -82 210 -61 159 -185 474
-195 497 l-9 22 -1135 0 c-624 1 -1137 -3 -1139 -7z"/>
</g>
</svg>
